<svg xmlns="http://www.w3.org/2000/svg" xmlns:xlink="http://www.w3.org/1999/xlink" width="1200" zoomAndPan="magnify" viewBox="0 0 900 899.99999" height="1200" preserveAspectRatio="xMidYMid meet" version="1.0"><path fill="#000000" d="M 882.726562 113.359375 C 869.925781 73.128906 852.578125 44.320312 851.839844 43.109375 C 848.996094 38.425781 843.140625 35.988281 837.832031 37.203125 C 836.460938 37.515625 803.695312 45.160156 765.902344 64.023438 C 714.878906 89.476562 679.238281 123.460938 662.820312 162.285156 C 649.152344 194.617188 647.191406 234.140625 656.886719 277.804688 C 636.234375 254.753906 613 234.589844 587.671875 217.613281 C 579.9375 202.34375 559.488281 164.753906 527.519531 125.46875 C 516.988281 112.535156 496.734375 128.765625 507.375 141.828125 C 528.914062 168.304688 545.128906 194.34375 555.269531 212.234375 L 437.027344 189.199219 L 324.6875 36.070312 C 335.59375 36.21875 346.542969 37.273438 357.433594 39.410156 C 391.964844 46.164062 426.078125 63.742188 458.835938 91.640625 C 471.667969 102.574219 488.335938 82.671875 475.671875 71.890625 C 439.484375 41.074219 401.382812 21.574219 362.421875 13.945312 C 302.945312 2.316406 233.578125 17.585938 161.796875 58.121094 C 108.300781 88.332031 72.523438 121.515625 71.03125 122.910156 C 66.246094 127.378906 65.480469 135.5 69.488281 140.71875 C 74.734375 151.476562 94.617188 190.273438 127.710938 232.046875 C 147.21875 256.675781 167.789062 277.753906 189.074219 295.078125 C 183.027344 300.140625 177.140625 305.4375 171.445312 311.011719 C 141.03125 340.742188 117.742188 375.8125 102.453125 414.152344 C 88.9375 448.03125 81.667969 484.476562 81.261719 522.039062 C 80.59375 583.460938 98.402344 642.703125 132.777344 693.367188 C 166.359375 742.851562 213.300781 780.847656 268.53125 803.238281 C 283.988281 809.492188 293.761719 785.46875 278.292969 779.199219 C 258.28125 771.085938 239.484375 760.691406 222.144531 748.332031 C 224.363281 736.042969 229.503906 691.808594 200.105469 646.019531 C 195.988281 639.617188 208.292969 614.464844 215.636719 599.4375 C 223.222656 583.953125 231.046875 567.945312 234.703125 552.871094 C 238.585938 536.855469 234.214844 523.414062 222.074219 513.984375 C 213.160156 507.0625 201.496094 503.476562 191.214844 500.316406 C 184.535156 498.261719 176.964844 495.9375 174.257812 493.683594 C 168.6875 489.019531 159.59375 471.785156 152.28125 457.941406 C 144.167969 442.589844 136.445312 427.972656 128.558594 418.976562 C 146.304688 376.863281 174.804688 339.597656 210.5 311.085938 C 243.105469 333.285156 280.320312 348.601562 319.878906 351.703125 C 274.003906 387.222656 259.164062 432.585938 280.375 476.15625 C 305.144531 527.035156 356.128906 518.90625 401.113281 511.746094 C 408.894531 510.503906 416.945312 509.222656 424.660156 508.261719 C 427.554688 507.898438 428.421875 508.6875 429.007812 509.203125 C 438.855469 517.957031 438.5625 559.773438 438.351562 590.308594 C 438.066406 632.546875 437.796875 672.445312 453.539062 692.929688 C 461.570312 703.371094 472.878906 708.710938 486.136719 708.710938 C 494.082031 708.710938 502.710938 706.796875 511.765625 702.917969 C 550.917969 686.160156 591.613281 635.734375 585.40625 595.839844 C 579.980469 560.957031 576.390625 537.910156 584.855469 519.335938 C 592.679688 502.144531 611.597656 486.226562 648.855469 465.914062 C 653.316406 485.992188 655.566406 506.882812 655.335938 528.3125 C 654.539062 601.460938 625.28125 669.921875 572.957031 721.078125 C 514.476562 778.246094 432.285156 806.480469 350.980469 797.527344 C 334.414062 795.730469 331.554688 821.488281 348.140625 823.316406 C 437.136719 833.109375 527.113281 802.195312 591.105469 739.625 C 648.394531 683.617188 680.425781 608.675781 681.296875 528.589844 C 682.453125 422.402344 627.929688 328.328125 544.933594 274.132812 C 562.085938 261.914062 574.859375 251.347656 581.945312 245.214844 C 612.203125 266.910156 639.046875 293.636719 661.375 324.769531 C 714.984375 399.535156 736.242188 490.675781 721.25 581.417969 C 690.289062 768.742188 512.609375 895.984375 325.128906 865.03125 C 234.320312 850.042969 154.789062 800.621094 101.183594 725.859375 C 47.570312 651.101562 26.308594 559.953125 41.304688 469.210938 C 44 452.882812 18.402344 448.597656 15.699219 464.984375 C -0.433594 562.566406 22.4375 660.582031 80.074219 740.976562 C 137.71875 821.359375 223.253906 874.511719 320.902344 890.632812 C 341.324219 894 361.765625 895.664062 382.070312 895.664062 C 458.8125 895.664062 533.46875 871.851562 597.085938 826.296875 C 677.546875 768.6875 730.738281 683.226562 746.859375 585.644531 C 758.675781 514.140625 749.53125 442.40625 721.128906 377.539062 C 734.238281 373.671875 756.546875 366.171875 780.980469 353.976562 C 831.992188 328.523438 867.640625 294.539062 884.054688 255.714844 C 900.484375 216.882812 900.023438 167.65625 882.726562 113.359375 Z M 129.316406 470.050781 C 138.976562 488.351562 148.109375 505.644531 157.601562 513.578125 C 164.324219 519.195312 173.679688 522.070312 183.582031 525.113281 C 208.953125 532.90625 211.902344 536.734375 209.46875 546.757812 C 206.480469 559.085938 199.277344 573.808594 192.316406 588.039062 C 178.910156 615.453125 166.25 641.328125 178.25 660.03125 C 195.269531 686.535156 198.1875 712.628906 197.894531 728.859375 C 120.578125 659.1875 89.09375 549.140625 117.894531 449.121094 C 121.710938 455.664062 125.726562 463.261719 129.316406 470.050781 Z M 757.359375 215.125 L 720.46875 125.785156 C 738.417969 109.011719 759.246094 96.386719 776.984375 87.492188 C 792.09375 79.917969 806.46875 74.253906 818 70.238281 Z M 841.933594 80.296875 C 847.085938 91.363281 853.0625 105.636719 858.167969 121.769531 C 863.765625 139.476562 868.90625 161.417969 869.925781 184.308594 L 783.472656 219.953125 Z M 686.730469 172.386719 C 690.558594 163.339844 695.507812 154.949219 701.226562 147.207031 L 743.21875 248.894531 L 705.535156 338.949219 C 700.242188 327.722656 694.003906 312.976562 688.714844 296.230469 C 678.097656 262.691406 669.140625 213.976562 686.730469 172.386719 Z M 769.894531 330.503906 C 755.351562 337.800781 741.472656 343.324219 730.171875 347.308594 L 769.277344 253.878906 L 868.824219 212.828125 C 867.378906 223.972656 864.625 235.019531 860.144531 245.613281 C 842.558594 287.203125 801.359375 314.738281 769.894531 330.503906 Z M 301.820312 323.121094 C 297.234375 322.226562 292.707031 321.128906 288.246094 319.878906 L 431.910156 214.640625 L 550.207031 237.679688 C 507.113281 271.609375 402.242188 342.785156 301.820312 323.121094 Z M 170.523438 241.960938 C 139.796875 208.867188 117.277344 173.484375 104.347656 150.828125 L 254.886719 180.15625 Z M 197.109375 68.886719 L 260.09375 154.738281 L 108.582031 125.222656 C 127.65625 110.171875 159.144531 87.574219 197.109375 68.886719 Z M 297.648438 162.058594 L 221.289062 57.96875 C 244.152344 48.582031 268.6875 41.191406 293.84375 37.90625 L 399.476562 181.886719 Z M 289.570312 186.914062 L 397.234375 207.882812 L 259.054688 309.097656 C 233 297.070312 209.546875 279.78125 189.03125 260.5625 Z M 641.804688 440.230469 C 595.003906 465.148438 572.089844 484.71875 561.21875 508.589844 C 549.542969 534.226562 553.820312 561.742188 559.742188 599.820312 C 563.242188 622.277344 536.535156 664.09375 501.542969 679.070312 C 488.597656 684.609375 479.375 683.957031 474.125 677.121094 C 463.808594 663.707031 464.089844 623.105469 464.3125 590.488281 C 464.621094 545.359375 464.890625 506.386719 446.261719 489.820312 C 439.558594 483.863281 430.988281 481.34375 421.464844 482.511719 C 413.300781 483.527344 405.023438 484.847656 397.023438 486.125 C 349.304688 493.722656 319.277344 496.765625 303.722656 464.808594 C 278.519531 413.046875 329.539062 374.707031 352.640625 360.625 C 357.347656 357.761719 361.710938 354.382812 365.769531 350.621094 C 421.609375 343.953125 474.371094 320.007812 521.390625 290.019531 C 577.769531 323.679688 621.046875 376.949219 641.804688 440.230469 Z M 641.804688 440.230469 " fill-opacity="1" fill-rule="nonzero"></path></svg>